<svg height="24" viewBox="0 0 24 24" width="24" xmlns="http://www.w3.org/2000/svg" xmlns:xlink="http://www.w3.org/1999/xlink"><defs><path id="a" d="m11.7099609.57250977c-2.24055986.71761067-3.71044918 2.48168945-4.40966793 5.29223632-1.04882813 4.21582031-2.34863281 4.75341801-6.58032227 3.25390625 1.51977539 2.80712896 4.60009766 3.93261716 6.58032227 3.93261716s7.10888673-2.75708 6.52124023-7.9978027c-.5100911-1.52636719-1.2139486-3.02001953-2.1115723-4.48095703z"/><path id="b" d="m14.1791377 12.7701494 5.5309284 5.5399917c.3865785.3865786.3865785 1.0133464 0 1.399925-.3865786.3865785-1.0133464.3865785-1.399925 0l-5.529794-5.5388555c-1.3418225 1.044812-3.02882381 1.6671321-4.86117574 1.6671321-4.37363757 0-7.91917136-3.5455338-7.91917136-7.91917134 0-4.37363757 3.54553379-7.91917136 7.91917136-7.91917136 4.37363754 0 7.91917134 3.54553379 7.91917134 7.91917136 0 1.82771309-.6191731 3.51081054-1.659205 4.85097804zm-6.25996634 1.0884005c3.28022814 0 5.93937854-2.6591504 5.93937854-5.93937854 0-3.28022818-2.6591504-5.93937852-5.93937854-5.93937852-3.28022818 0-5.93937852 2.65915034-5.93937852 5.93937852 0 3.28022814 2.65915034 5.93937854 5.93937852 5.93937854z"/><mask id="c" fill="#fff"><use fill="#fff" fill-rule="evenodd" xlink:href="#a"/></mask><mask id="d" fill="#fff"><use fill="#fff" fill-rule="evenodd" xlink:href="#b"/></mask></defs><g fill="none" fill-rule="evenodd" transform="translate(2 2)"><g transform="translate(1 2)"><use fill="#d8d8d8" xlink:href="#a"/><g fill="#ffa0a0" mask="url(#c)"><path d="m0 0h24v24h-24z" transform="translate(-3 -4)"/></g></g><use fill="#000" fill-rule="nonzero" xlink:href="#b"/><g fill="#7600ff" mask="url(#d)"><path d="m0 0h24v24h-24z" transform="translate(-2 -2)"/></g></g></svg>